<svg width="51" height="30" viewBox="0 0 51 30" fill="none" xmlns="http://www.w3.org/2000/svg">
<mask id="path-1-inside-1_156_4302" fill="white">
<path d="M50.7302 26.2472C50.6685 26.1149 50.611 26.0052 50.5576 25.9173C49.6736 24.3335 47.9843 22.3895 45.4908 20.0848L45.4381 20.032L45.4117 20.0061L45.385 19.9796H45.3583C44.2266 18.9064 43.5099 18.1848 43.2098 17.8153C42.6607 17.1116 42.5377 16.3992 42.8378 15.6774C43.0498 15.1321 43.8463 13.9804 45.2253 12.2208C45.9507 11.2883 46.5252 10.5409 46.9494 9.97783C50.0092 5.93124 51.3358 3.34542 50.9288 2.21934L50.7708 1.95619C50.6646 1.79777 50.3905 1.65284 49.9488 1.52066C49.5062 1.38876 48.9404 1.36695 48.2505 1.45485L40.6107 1.50735C40.4869 1.46373 40.3102 1.46779 40.08 1.52066C39.85 1.57353 39.735 1.60006 39.735 1.60006L39.602 1.66615L39.4965 1.74554C39.408 1.79804 39.3107 1.89038 39.2045 2.02237C39.0989 2.1539 39.0105 2.30826 38.9399 2.48415C38.1081 4.61291 37.1625 6.59211 36.1011 8.42167C35.4467 9.51263 34.8457 10.4581 34.2969 11.2586C33.7488 12.0589 33.2889 12.6485 32.9178 13.0264C32.5462 13.4048 32.2108 13.7078 31.9095 13.9368C31.6088 14.1658 31.3792 14.2626 31.2202 14.2272C31.0608 14.1918 30.9108 14.1567 30.7687 14.1216C30.5213 13.9631 30.3223 13.7477 30.1722 13.475C30.0215 13.2023 29.92 12.8591 29.867 12.4457C29.8142 12.032 29.783 11.6761 29.7741 11.3769C29.7658 11.0781 29.7696 10.6554 29.7875 10.1101C29.8059 9.56448 29.8142 9.19531 29.8142 9.00177C29.8142 8.33313 29.8273 7.60746 29.8536 6.82458C29.8804 6.04169 29.902 5.42139 29.9201 4.96442C29.9382 4.50698 29.9465 4.02302 29.9465 3.51281C29.9465 3.00259 29.9153 2.60246 29.8536 2.31205C29.7927 2.022 29.6991 1.74046 29.5758 1.46751C29.4517 1.19485 29.2702 0.983921 29.032 0.834184C28.7933 0.684632 28.4965 0.565952 28.1433 0.477774C27.2059 0.266756 26.0122 0.152605 24.5617 0.134858C21.2725 0.099735 19.1589 0.31103 18.2216 0.768466C17.8502 0.961737 17.5142 1.22581 17.2137 1.55985C16.8952 1.94704 16.8508 2.15834 17.0807 2.19309C18.142 2.35124 18.8933 2.72955 19.3355 3.32767L19.4948 3.64461C19.6188 3.87328 19.7425 4.27813 19.8664 4.85859C19.99 5.43905 20.0699 6.08116 20.105 6.78455C20.1933 8.06905 20.1933 9.1686 20.105 10.0833C20.0164 10.9983 19.9328 11.7107 19.853 12.2209C19.7732 12.7311 19.6539 13.1446 19.4948 13.4611C19.3355 13.7778 19.2295 13.9714 19.1763 14.0416C19.1232 14.1119 19.079 14.1561 19.0439 14.1735C18.814 14.2611 18.575 14.3058 18.3275 14.3058C18.0797 14.3058 17.7792 14.1825 17.4256 13.9361C17.0721 13.6896 16.7051 13.3512 16.3248 12.9201C15.9445 12.4889 15.5156 11.8863 15.038 11.1123C14.5607 10.3383 14.0654 9.42352 13.5525 8.36797L13.1282 7.60247C12.8629 7.11 12.5006 6.39293 12.0407 5.4519C11.5806 4.5105 11.1739 3.59988 10.8204 2.72022C10.6791 2.35078 10.4668 2.06951 10.1838 1.87596L10.0511 1.79657C9.96279 1.72632 9.82109 1.65173 9.62671 1.57224C9.43206 1.49284 9.22894 1.4359 9.01654 1.40087L1.74791 1.45337C1.00515 1.45337 0.501184 1.62076 0.23582 1.95508L0.129618 2.11323C0.0765641 2.20132 0.0498047 2.342 0.0498047 2.53564C0.0498047 2.72919 0.102859 2.96673 0.209061 3.24799C1.27015 5.72882 2.42406 8.12137 3.67079 10.426C4.91752 12.7307 6.0009 14.5871 6.92029 15.9937C7.83987 17.4013 8.77719 18.7298 9.73226 19.9786C10.6873 21.2278 11.3195 22.0283 11.6288 22.38C11.9385 22.7323 12.1818 22.9958 12.3586 23.1717L13.0219 23.8049C13.4463 24.2272 14.0696 24.733 14.892 25.3222C15.7146 25.9118 16.6252 26.4923 17.6244 27.0645C18.6238 27.6358 19.7865 28.1021 21.113 28.4626C22.4394 28.8236 23.7303 28.9684 24.9861 28.8985H28.0368C28.6556 28.8454 29.1243 28.6518 29.4429 28.3178L29.5485 28.1855C29.6195 28.0805 29.6859 27.9174 29.7472 27.6979C29.8093 27.478 29.8401 27.2357 29.8401 26.9722C29.822 26.2158 29.8799 25.5342 30.0122 24.9273C30.1444 24.3206 30.2951 23.8631 30.4637 23.5551C30.6321 23.2473 30.8222 22.9875 31.0338 22.777C31.2458 22.566 31.3969 22.4381 31.4856 22.3941C31.5736 22.3499 31.644 22.3198 31.697 22.3018C32.1215 22.1611 32.621 22.2974 33.1963 22.7112C33.7712 23.1246 34.3103 23.6351 34.8147 24.2418C35.3188 24.8491 35.9244 25.5304 36.6316 26.2867C37.3394 27.0434 37.9582 27.6058 38.4885 27.9758L39.0189 28.2925C39.3731 28.5038 39.8329 28.6973 40.399 28.8732C40.964 29.049 41.459 29.093 41.8841 29.0051L48.675 28.8997C49.3466 28.8997 49.8693 28.7891 50.24 28.5696C50.6115 28.3497 50.8322 28.1074 50.9033 27.8439C50.9743 27.5801 50.9781 27.2808 50.9168 26.9462C50.8539 26.6125 50.7919 26.3791 50.7302 26.2472Z"/>
</mask>
<path d="M50.7302 26.2472C50.6685 26.1149 50.611 26.0052 50.5576 25.9173C49.6736 24.3335 47.9843 22.3895 45.4908 20.0848L45.4381 20.032L45.4117 20.0061L45.385 19.9796H45.3583C44.2266 18.9064 43.5099 18.1848 43.2098 17.8153C42.6607 17.1116 42.5377 16.3992 42.8378 15.6774C43.0498 15.1321 43.8463 13.9804 45.2253 12.2208C45.9507 11.2883 46.5252 10.5409 46.9494 9.97783C50.0092 5.93124 51.3358 3.34542 50.9288 2.21934L50.7708 1.95619C50.6646 1.79777 50.3905 1.65284 49.9488 1.52066C49.5062 1.38876 48.9404 1.36695 48.2505 1.45485L40.6107 1.50735C40.4869 1.46373 40.3102 1.46779 40.08 1.52066C39.85 1.57353 39.735 1.60006 39.735 1.60006L39.602 1.66615L39.4965 1.74554C39.408 1.79804 39.3107 1.89038 39.2045 2.02237C39.0989 2.1539 39.0105 2.30826 38.9399 2.48415C38.1081 4.61291 37.1625 6.59211 36.1011 8.42167C35.4467 9.51263 34.8457 10.4581 34.2969 11.2586C33.7488 12.0589 33.2889 12.6485 32.9178 13.0264C32.5462 13.4048 32.2108 13.7078 31.9095 13.9368C31.6088 14.1658 31.3792 14.2626 31.2202 14.2272C31.0608 14.1918 30.9108 14.1567 30.7687 14.1216C30.5213 13.9631 30.3223 13.7477 30.1722 13.475C30.0215 13.2023 29.92 12.8591 29.867 12.4457C29.8142 12.032 29.783 11.6761 29.7741 11.3769C29.7658 11.0781 29.7696 10.6554 29.7875 10.1101C29.8059 9.56448 29.8142 9.19531 29.8142 9.00177C29.8142 8.33313 29.8273 7.60746 29.8536 6.82458C29.8804 6.04169 29.902 5.42139 29.9201 4.96442C29.9382 4.50698 29.9465 4.02302 29.9465 3.51281C29.9465 3.00259 29.9153 2.60246 29.8536 2.31205C29.7927 2.022 29.6991 1.74046 29.5758 1.46751C29.4517 1.19485 29.2702 0.983921 29.032 0.834184C28.7933 0.684632 28.4965 0.565952 28.1433 0.477774C27.2059 0.266756 26.0122 0.152605 24.5617 0.134858C21.2725 0.099735 19.1589 0.31103 18.2216 0.768466C17.8502 0.961737 17.5142 1.22581 17.2137 1.55985C16.8952 1.94704 16.8508 2.15834 17.0807 2.19309C18.142 2.35124 18.8933 2.72955 19.3355 3.32767L19.4948 3.64461C19.6188 3.87328 19.7425 4.27813 19.8664 4.85859C19.99 5.43905 20.0699 6.08116 20.105 6.78455C20.1933 8.06905 20.1933 9.1686 20.105 10.0833C20.0164 10.9983 19.9328 11.7107 19.853 12.2209C19.7732 12.7311 19.6539 13.1446 19.4948 13.4611C19.3355 13.7778 19.2295 13.9714 19.1763 14.0416C19.1232 14.1119 19.079 14.1561 19.0439 14.1735C18.814 14.2611 18.575 14.3058 18.3275 14.3058C18.0797 14.3058 17.7792 14.1825 17.4256 13.9361C17.0721 13.6896 16.7051 13.3512 16.3248 12.9201C15.9445 12.4889 15.5156 11.8863 15.038 11.1123C14.5607 10.3383 14.0654 9.42352 13.5525 8.36797L13.1282 7.60247C12.8629 7.11 12.5006 6.39293 12.0407 5.4519C11.5806 4.5105 11.1739 3.59988 10.8204 2.72022C10.6791 2.35078 10.4668 2.06951 10.1838 1.87596L10.0511 1.79657C9.96279 1.72632 9.82109 1.65173 9.62671 1.57224C9.43206 1.49284 9.22894 1.4359 9.01654 1.40087L1.74791 1.45337C1.00515 1.45337 0.501184 1.62076 0.23582 1.95508L0.129618 2.11323C0.0765641 2.20132 0.0498047 2.342 0.0498047 2.53564C0.0498047 2.72919 0.102859 2.96673 0.209061 3.24799C1.27015 5.72882 2.42406 8.12137 3.67079 10.426C4.91752 12.7307 6.0009 14.5871 6.92029 15.9937C7.83987 17.4013 8.77719 18.7298 9.73226 19.9786C10.6873 21.2278 11.3195 22.0283 11.6288 22.38C11.9385 22.7323 12.1818 22.9958 12.3586 23.1717L13.0219 23.8049C13.4463 24.2272 14.0696 24.733 14.892 25.3222C15.7146 25.9118 16.6252 26.4923 17.6244 27.0645C18.6238 27.6358 19.7865 28.1021 21.113 28.4626C22.4394 28.8236 23.7303 28.9684 24.9861 28.8985H28.0368C28.6556 28.8454 29.1243 28.6518 29.4429 28.3178L29.5485 28.1855C29.6195 28.0805 29.6859 27.9174 29.7472 27.6979C29.8093 27.478 29.8401 27.2357 29.8401 26.9722C29.822 26.2158 29.8799 25.5342 30.0122 24.9273C30.1444 24.3206 30.2951 23.8631 30.4637 23.5551C30.6321 23.2473 30.8222 22.9875 31.0338 22.777C31.2458 22.566 31.3969 22.4381 31.4856 22.3941C31.5736 22.3499 31.644 22.3198 31.697 22.3018C32.1215 22.1611 32.621 22.2974 33.1963 22.7112C33.7712 23.1246 34.3103 23.6351 34.8147 24.2418C35.3188 24.8491 35.9244 25.5304 36.6316 26.2867C37.3394 27.0434 37.9582 27.6058 38.4885 27.9758L39.0189 28.2925C39.3731 28.5038 39.8329 28.6973 40.399 28.8732C40.964 29.049 41.459 29.093 41.8841 29.0051L48.675 28.8997C49.3466 28.8997 49.8693 28.7891 50.24 28.5696C50.6115 28.3497 50.8322 28.1074 50.9033 27.8439C50.9743 27.5801 50.9781 27.2808 50.9168 26.9462C50.8539 26.6125 50.7919 26.3791 50.7302 26.2472Z" stroke="white" stroke-opacity="0.7" stroke-width="2" stroke-linejoin="round" mask="url(#path-1-inside-1_156_4302)"/>
</svg>
