<svg width="20" height="17" viewBox="0 0 20 17" fill="none" xmlns="http://www.w3.org/2000/svg">
<path d="M0 8.5C0 8.61865 0.0458069 8.73243 0.127342 8.81633C0.208879 8.90022 0.319466 8.94736 0.434776 8.94736H18.5149L11.4313 16.2359C11.3497 16.3198 11.3039 16.4337 11.3039 16.5524C11.3039 16.6711 11.3497 16.785 11.4313 16.8689C11.5129 16.9528 11.6236 17 11.7389 17C11.8543 17 11.965 16.9528 12.0465 16.8689L19.8725 8.8165C19.9129 8.77496 19.945 8.72562 19.9669 8.67131C19.9887 8.617 20 8.55879 20 8.5C20 8.44121 19.9887 8.383 19.9669 8.32869C19.945 8.27438 19.9129 8.22504 19.8725 8.1835L12.0465 0.1311C12.0061 0.0895361 11.9582 0.0565658 11.9054 0.0340716C11.8526 0.0115774 11.7961 0 11.7389 0C11.6818 0 11.6252 0.0115774 11.5725 0.0340716C11.5197 0.0565658 11.4717 0.0895361 11.4313 0.1311C11.3909 0.172664 11.3589 0.222007 11.337 0.276313C11.3152 0.330619 11.3039 0.388824 11.3039 0.447604C11.3039 0.506384 11.3152 0.564589 11.337 0.618895C11.3589 0.673201 11.3909 0.722544 11.4313 0.764108L18.5149 8.05264H0.434776C0.319466 8.05264 0.208879 8.09978 0.127342 8.18367C0.0458069 8.26757 0 8.38135 0 8.5Z" fill="#222222"/>
</svg>
