<svg width="20" height="17" viewBox="0 0 20 17" fill="none" xmlns="http://www.w3.org/2000/svg">
<path d="M20 8.5C20 8.61865 19.9542 8.73243 19.8727 8.81633C19.7911 8.90022 19.6805 8.94736 19.5652 8.94736H1.4851L8.56867 16.2359C8.65026 16.3198 8.69609 16.4337 8.69609 16.5524C8.69609 16.6711 8.65026 16.785 8.56867 16.8689C8.48709 16.9528 8.37644 17 8.26107 17C8.1457 17 8.03505 16.9528 7.95347 16.8689L0.127514 8.8165C0.0870898 8.77496 0.0550214 8.72562 0.0331417 8.67131C0.0112619 8.617 0 8.55879 0 8.5C0 8.44121 0.0112619 8.383 0.0331417 8.32869C0.0550214 8.27438 0.0870898 8.22504 0.127514 8.1835L7.95347 0.1311C7.99386 0.0895361 8.04182 0.0565658 8.0946 0.0340716C8.14738 0.0115774 8.20394 0 8.26107 0C8.3182 0 8.37477 0.0115774 8.42754 0.0340716C8.48032 0.0565658 8.52828 0.0895361 8.56867 0.1311C8.60907 0.172664 8.64111 0.222007 8.66297 0.276313C8.68483 0.330619 8.69609 0.388824 8.69609 0.447604C8.69609 0.506384 8.68483 0.564589 8.66297 0.618895C8.64111 0.673201 8.60907 0.722544 8.56867 0.764108L1.4851 8.05264H19.5652C19.6805 8.05264 19.7911 8.09978 19.8727 8.18367C19.9542 8.26757 20 8.38135 20 8.5Z" fill="#222222"/>
</svg>
