<svg width="24" height="22" viewBox="0 0 24 22" fill="none" xmlns="http://www.w3.org/2000/svg">
<path d="M22.957 1.47294C22.9556 1.47792 22.9543 1.48294 22.9531 1.48799L18.6771 18.7823L18.6771 18.7825C18.5551 19.2762 17.9777 19.5491 17.4937 19.3037L17.4936 19.3037L12.0855 16.564C11.8544 16.4469 11.5722 16.5258 11.4352 16.7457L8.87801 20.8512L8.8778 20.8515C8.43515 21.5634 7.34594 21.2227 7.34594 20.4408V15.8662C7.34594 15.6566 7.43522 15.4488 7.59998 15.2919C7.60033 15.2915 7.60067 15.2912 7.60101 15.2909L18.1377 5.4201C18.2473 5.31745 18.305 5.17098 18.2947 5.02117C18.2794 4.79689 18.154 4.59176 17.9622 4.47649C17.7458 4.34643 17.4692 4.34597 17.2397 4.5007L17.2373 4.50238L4.90511 12.9252L0.943661 10.9198C0.943638 10.9198 0.943615 10.9198 0.943592 10.9198C0.330353 10.6085 0.359875 9.74892 0.988909 9.48078L0.989447 9.48055L21.8244 0.570322L21.8249 0.570113C22.459 0.29813 23.0984 0.856991 22.957 1.47294Z" stroke="#222222" stroke-linejoin="round"/>
</svg>
