<svg width="33" height="19" viewBox="0 0 33 19" fill="none" xmlns="http://www.w3.org/2000/svg">
<mask id="path-1-inside-1_87_194" fill="white">
<path d="M32.0033 16.4916C31.9643 16.408 31.928 16.3388 31.8943 16.2833C31.336 15.2831 30.2693 14.0556 28.6947 12.6002L28.6614 12.5669L28.6448 12.5505L28.6279 12.5338H28.611C27.8964 11.8561 27.4439 11.4004 27.2543 11.1671C26.9076 10.7227 26.8299 10.2729 27.0194 9.81707C27.1533 9.47271 27.6562 8.74545 28.5271 7.63432C28.9851 7.04546 29.3479 6.5735 29.6158 6.21793C31.548 3.66262 32.3857 2.02975 32.1287 1.31866L32.0289 1.15249C31.9618 1.05245 31.7887 0.960932 31.5098 0.877467C31.2303 0.794177 30.8731 0.780403 30.4374 0.83591L25.6131 0.869062C25.5349 0.841513 25.4233 0.844081 25.2779 0.877467C25.1327 0.910853 25.0601 0.927605 25.0601 0.927605L24.9761 0.969337L24.9095 1.01947C24.8536 1.05263 24.7922 1.11094 24.7251 1.19428C24.6584 1.27734 24.6026 1.37481 24.558 1.48588C24.0328 2.83013 23.4356 4.07995 22.7654 5.23526C22.3521 5.92417 21.9726 6.5212 21.6261 7.02672C21.28 7.53206 20.9896 7.90439 20.7552 8.14305C20.5205 8.38194 20.3087 8.57333 20.1185 8.7179C19.9286 8.86254 19.7836 8.92365 19.6832 8.90129C19.5826 8.87894 19.4878 8.85676 19.3981 8.83458C19.2419 8.73454 19.1162 8.59849 19.0215 8.4263C18.9263 8.25412 18.8622 8.0374 18.8287 7.77633C18.7954 7.51508 18.7757 7.29037 18.77 7.10143C18.7648 6.91273 18.7672 6.64582 18.7785 6.30145C18.7902 5.95691 18.7954 5.7238 18.7954 5.60157C18.7954 5.17935 18.8037 4.72111 18.8203 4.22674C18.8372 3.73237 18.8508 3.34067 18.8623 3.0521C18.8737 2.76325 18.8789 2.45764 18.8789 2.13545C18.8789 1.81327 18.8592 1.56059 18.8203 1.37721C18.7818 1.19405 18.7227 1.01626 18.6448 0.843906C18.5665 0.671724 18.4519 0.53853 18.3014 0.443976C18.1507 0.349538 17.9633 0.274595 17.7403 0.218913C17.1483 0.0856607 16.3945 0.0135776 15.4786 0.00237109C13.4015 -0.0198084 12.0669 0.113618 11.475 0.402477C11.2405 0.524522 11.0282 0.691276 10.8385 0.902215C10.6374 1.14671 10.6094 1.28014 10.7545 1.30209C11.4247 1.40195 11.8991 1.64085 12.1784 2.01854L12.279 2.21868C12.3572 2.36308 12.4354 2.61873 12.5136 2.98527C12.5917 3.35182 12.6421 3.75729 12.6643 4.20147C12.72 5.01259 12.72 5.70693 12.6643 6.28453C12.6084 6.86236 12.5556 7.31219 12.5052 7.63438C12.4548 7.95657 12.3794 8.21764 12.279 8.41755C12.1784 8.61751 12.1114 8.73973 12.0778 8.78409C12.0443 8.82845 12.0164 8.85641 11.9942 8.86738C11.8491 8.92271 11.6981 8.95091 11.5419 8.95091C11.3854 8.95091 11.1956 8.87304 10.9723 8.71744C10.7491 8.56183 10.5174 8.34809 10.2772 8.07587C10.0371 7.80359 9.76625 7.42309 9.46461 6.93433C9.16321 6.44556 8.85048 5.8679 8.5266 5.20135L8.25864 4.71796C8.09113 4.40698 7.86231 3.95417 7.57193 3.35993C7.28138 2.76546 7.02457 2.19043 6.80132 1.63495C6.71208 1.40166 6.57801 1.22405 6.39935 1.10183L6.31551 1.05169C6.25977 1.00733 6.17029 0.960231 6.04755 0.910036C5.92463 0.859899 5.79637 0.823944 5.66224 0.801823L1.07231 0.834976C0.603276 0.834976 0.285034 0.940678 0.117463 1.15179L0.0504002 1.25166C0.0168978 1.30728 0 1.39612 0 1.5184C0 1.64062 0.0335023 1.79062 0.100566 1.96823C0.770612 3.5348 1.49927 5.04563 2.28655 6.50095C3.07382 7.95627 3.75795 9.12857 4.33852 10.0168C4.91921 10.9057 5.5111 11.7446 6.1142 12.5331C6.7173 13.322 7.11651 13.8275 7.31184 14.0496C7.50739 14.272 7.661 14.4384 7.77265 14.5495L8.19152 14.9493C8.45954 15.216 8.85312 15.5354 9.37243 15.9075C9.89187 16.2798 10.4669 16.6464 11.0979 17.0077C11.729 17.3685 12.4632 17.6629 13.3008 17.8906C14.1384 18.1185 14.9536 18.21 15.7466 18.1658H17.673C18.0637 18.1323 18.3597 18.01 18.5609 17.7991L18.6276 17.7156C18.6724 17.6493 18.7144 17.5463 18.7531 17.4076C18.7923 17.2688 18.8118 17.1158 18.8118 16.9494C18.8003 16.4718 18.8369 16.0413 18.9204 15.6581C19.0039 15.275 19.0991 14.9861 19.2055 14.7916C19.3119 14.5972 19.4319 14.4332 19.5655 14.3002C19.6994 14.167 19.7948 14.0863 19.8508 14.0585C19.9064 14.0305 19.9508 14.0116 19.9843 14.0002C20.2524 13.9113 20.5678 13.9974 20.9311 14.2587C21.2941 14.5198 21.6346 14.8421 21.9531 15.2252C22.2714 15.6087 22.6538 16.0389 23.1004 16.5166C23.5473 16.9943 23.9381 17.3495 24.273 17.5832L24.6079 17.7831C24.8316 17.9165 25.1219 18.0388 25.4794 18.1498C25.8362 18.2608 26.1488 18.2886 26.4172 18.2331L30.7054 18.1666C31.1296 18.1666 31.4596 18.0967 31.6937 17.9581C31.9283 17.8192 32.0676 17.6663 32.1126 17.4999C32.1574 17.3333 32.1598 17.1443 32.1211 16.933C32.0814 16.7222 32.0422 16.5749 32.0033 16.4916Z"/>
</mask>
<path d="M32.0033 16.4916C31.9643 16.408 31.928 16.3388 31.8943 16.2833C31.336 15.2831 30.2693 14.0556 28.6947 12.6002L28.6614 12.5669L28.6448 12.5505L28.6279 12.5338H28.611C27.8964 11.8561 27.4439 11.4004 27.2543 11.1671C26.9076 10.7227 26.8299 10.2729 27.0194 9.81707C27.1533 9.47271 27.6562 8.74545 28.5271 7.63432C28.9851 7.04546 29.3479 6.5735 29.6158 6.21793C31.548 3.66262 32.3857 2.02975 32.1287 1.31866L32.0289 1.15249C31.9618 1.05245 31.7887 0.960932 31.5098 0.877467C31.2303 0.794177 30.8731 0.780403 30.4374 0.83591L25.6131 0.869062C25.5349 0.841513 25.4233 0.844081 25.2779 0.877467C25.1327 0.910853 25.0601 0.927605 25.0601 0.927605L24.9761 0.969337L24.9095 1.01947C24.8536 1.05263 24.7922 1.11094 24.7251 1.19428C24.6584 1.27734 24.6026 1.37481 24.558 1.48588C24.0328 2.83013 23.4356 4.07995 22.7654 5.23526C22.3521 5.92417 21.9726 6.5212 21.6261 7.02672C21.28 7.53206 20.9896 7.90439 20.7552 8.14305C20.5205 8.38194 20.3087 8.57333 20.1185 8.7179C19.9286 8.86254 19.7836 8.92365 19.6832 8.90129C19.5826 8.87894 19.4878 8.85676 19.3981 8.83458C19.2419 8.73454 19.1162 8.59849 19.0215 8.4263C18.9263 8.25412 18.8622 8.0374 18.8287 7.77633C18.7954 7.51508 18.7757 7.29037 18.77 7.10143C18.7648 6.91273 18.7672 6.64582 18.7785 6.30145C18.7902 5.95691 18.7954 5.7238 18.7954 5.60157C18.7954 5.17935 18.8037 4.72111 18.8203 4.22674C18.8372 3.73237 18.8508 3.34067 18.8623 3.0521C18.8737 2.76325 18.8789 2.45764 18.8789 2.13545C18.8789 1.81327 18.8592 1.56059 18.8203 1.37721C18.7818 1.19405 18.7227 1.01626 18.6448 0.843906C18.5665 0.671724 18.4519 0.53853 18.3014 0.443976C18.1507 0.349538 17.9633 0.274595 17.7403 0.218913C17.1483 0.0856607 16.3945 0.0135776 15.4786 0.00237109C13.4015 -0.0198084 12.0669 0.113618 11.475 0.402477C11.2405 0.524522 11.0282 0.691276 10.8385 0.902215C10.6374 1.14671 10.6094 1.28014 10.7545 1.30209C11.4247 1.40195 11.8991 1.64085 12.1784 2.01854L12.279 2.21868C12.3572 2.36308 12.4354 2.61873 12.5136 2.98527C12.5917 3.35182 12.6421 3.75729 12.6643 4.20147C12.72 5.01259 12.72 5.70693 12.6643 6.28453C12.6084 6.86236 12.5556 7.31219 12.5052 7.63438C12.4548 7.95657 12.3794 8.21764 12.279 8.41755C12.1784 8.61751 12.1114 8.73973 12.0778 8.78409C12.0443 8.82845 12.0164 8.85641 11.9942 8.86738C11.8491 8.92271 11.6981 8.95091 11.5419 8.95091C11.3854 8.95091 11.1956 8.87304 10.9723 8.71744C10.7491 8.56183 10.5174 8.34809 10.2772 8.07587C10.0371 7.80359 9.76625 7.42309 9.46461 6.93433C9.16321 6.44556 8.85048 5.8679 8.5266 5.20135L8.25864 4.71796C8.09113 4.40698 7.86231 3.95417 7.57193 3.35993C7.28138 2.76546 7.02457 2.19043 6.80132 1.63495C6.71208 1.40166 6.57801 1.22405 6.39935 1.10183L6.31551 1.05169C6.25977 1.00733 6.17029 0.960231 6.04755 0.910036C5.92463 0.859899 5.79637 0.823944 5.66224 0.801823L1.07231 0.834976C0.603276 0.834976 0.285034 0.940678 0.117463 1.15179L0.0504002 1.25166C0.0168978 1.30728 0 1.39612 0 1.5184C0 1.64062 0.0335023 1.79062 0.100566 1.96823C0.770612 3.5348 1.49927 5.04563 2.28655 6.50095C3.07382 7.95627 3.75795 9.12857 4.33852 10.0168C4.91921 10.9057 5.5111 11.7446 6.1142 12.5331C6.7173 13.322 7.11651 13.8275 7.31184 14.0496C7.50739 14.272 7.661 14.4384 7.77265 14.5495L8.19152 14.9493C8.45954 15.216 8.85312 15.5354 9.37243 15.9075C9.89187 16.2798 10.4669 16.6464 11.0979 17.0077C11.729 17.3685 12.4632 17.6629 13.3008 17.8906C14.1384 18.1185 14.9536 18.21 15.7466 18.1658H17.673C18.0637 18.1323 18.3597 18.01 18.5609 17.7991L18.6276 17.7156C18.6724 17.6493 18.7144 17.5463 18.7531 17.4076C18.7923 17.2688 18.8118 17.1158 18.8118 16.9494C18.8003 16.4718 18.8369 16.0413 18.9204 15.6581C19.0039 15.275 19.0991 14.9861 19.2055 14.7916C19.3119 14.5972 19.4319 14.4332 19.5655 14.3002C19.6994 14.167 19.7948 14.0863 19.8508 14.0585C19.9064 14.0305 19.9508 14.0116 19.9843 14.0002C20.2524 13.9113 20.5678 13.9974 20.9311 14.2587C21.2941 14.5198 21.6346 14.8421 21.9531 15.2252C22.2714 15.6087 22.6538 16.0389 23.1004 16.5166C23.5473 16.9943 23.9381 17.3495 24.273 17.5832L24.6079 17.7831C24.8316 17.9165 25.1219 18.0388 25.4794 18.1498C25.8362 18.2608 26.1488 18.2886 26.4172 18.2331L30.7054 18.1666C31.1296 18.1666 31.4596 18.0967 31.6937 17.9581C31.9283 17.8192 32.0676 17.6663 32.1126 17.4999C32.1574 17.3333 32.1598 17.1443 32.1211 16.933C32.0814 16.7222 32.0422 16.5749 32.0033 16.4916Z" stroke="#222222" stroke-width="2" stroke-linejoin="round" mask="url(#path-1-inside-1_87_194)"/>
</svg>
