<svg width="24" height="24" viewBox="0 0 24 24" fill="none" xmlns="http://www.w3.org/2000/svg">
<path d="M8.54451 9.87234L9.42206 9.00389C9.58633 8.84132 9.61778 8.58735 9.49812 8.38962L7.36929 4.87185C7.2471 4.65483 6.98202 4.55981 6.74842 4.65304C5.82712 5.02071 5.23421 5.5539 4.87977 6.20936C4.4707 6.96555 4.39689 7.88031 4.59028 8.87239C4.59028 8.87239 4.59028 8.87238 4.59028 8.87238L8.54451 9.87234ZM8.54451 9.87234C8.54163 9.87538 8.53871 9.8784 8.53574 9.88139C8.50844 9.90891 8.50274 9.95162 8.52232 9.9856L8.08937 10.2351L8.52211 9.98523C9.85251 12.289 11.3926 14.0175 13.5092 14.9503L13.5108 14.951C13.543 14.9654 13.5809 14.9588 13.6066 14.9338C13.6068 14.9336 13.6069 14.9334 13.6071 14.9332L14.5497 13.9906C14.7144 13.826 14.9708 13.7968 15.1683 13.9202L18.6167 16.0754C18.828 16.2074 18.9098 16.4748 18.8087 16.7024C18.3883 17.6485 17.8187 18.2533 17.1347 18.6114L16.9028 18.1685L17.1347 18.6114C16.3437 19.0256 15.4125 19.0845 14.4168 18.8781C12.4416 18.4687 10.1361 16.9477 8.29108 15.0603L8.54451 9.87234ZM11.7393 0.500073C11.7421 0.500073 11.7449 0.50005 11.7477 0.500003C17.9592 0.504661 22.9783 5.52658 22.9783 11.7393C22.9783 17.9548 17.9546 22.9785 11.739 22.9785C9.48411 22.9785 7.38752 22.3237 5.63738 21.1882L5.63686 21.1878C5.36532 21.0121 5.02933 20.9662 4.72053 21.0634C4.71288 21.0656 4.70527 21.0681 4.6977 21.0707L1.71189 22.1011L2.62425 19.0482C2.72194 18.7334 2.67149 18.3914 2.48738 18.1182L2.48593 18.1161C1.21358 16.2493 0.5 14.0823 0.5 11.7393C0.5 5.52385 5.52675 0.500073 11.7393 0.500073ZM5.23194 21.5435C5.27843 21.559 5.32325 21.5804 5.36522 21.6076C7.19519 22.795 9.38608 23.4785 11.739 23.4785C18.2307 23.4785 23.4783 18.231 23.4783 11.7393C23.4783 5.41512 18.4981 0.271747 12.2392 0.0104212L5.23194 21.5435ZM4.86074 21.5433H4.3608V21.5435C4.3608 21.5997 4.37024 21.6547 4.38809 21.7065L1.53564 22.6908L4.86074 21.5433Z" stroke="#222222" stroke-linejoin="round"/>
</svg>
