<svg width="75" height="88" viewBox="0 0 75 88" fill="none" xmlns="http://www.w3.org/2000/svg">
<path fill-rule="evenodd" clip-rule="evenodd" d="M46.3243 76.6219H48.9296V87.7972H46.3243V76.6219ZM52.0707 80.1245H49.5325V83.4396H52.0707V87.7972H54.7355V84.7971C54.7515 84.1205 54.6246 83.4481 54.3633 82.8246C54.2022 82.4094 53.9225 82.0518 53.5594 81.797C53.9065 81.5538 54.1837 81.2227 54.3633 80.837C54.6255 80.2534 54.7528 79.6174 54.7355 78.977V76.6069H52.0707V80.1095V80.1245ZM58.5465 87.7972V79.7495H64.9033C64.9276 78.9885 64.7421 78.2356 64.3673 77.5744C64.2306 77.2933 64.019 77.056 63.7561 76.8891C63.4932 76.7222 63.1893 76.6323 62.8786 76.6294H55.9413V87.8047L58.5465 87.7972ZM59.0899 80.6945H64.9033C64.9163 81.451 64.6894 82.192 64.2557 82.8096C64.1166 83.066 63.9168 83.2838 63.6739 83.4434C63.431 83.6031 63.1527 83.6997 62.8637 83.7246H62.5883L64.077 87.7972H61.2113L59.0899 80.7245V80.6945ZM66.0868 80.6945V87.7972H72.5403C72.8408 87.7914 73.1341 87.7032 73.3885 87.542C73.643 87.3807 73.849 87.1526 73.9843 86.8822C74.3714 86.2115 74.5648 85.4452 74.5426 84.6696V79.7495C74.5426 77.6645 73.9248 76.6219 72.6891 76.6219H66.124V79.7495H71.9448V84.6771H68.7292V80.7245L66.0868 80.6945ZM3.0703 76.6219L5.17679 84.6696L7.26841 76.6219H9.94806L6.84412 87.7972H3.52434L0.405518 76.6219H3.0703ZM19.7511 79.7495C19.7755 78.9885 19.59 78.2356 19.2152 77.5744C19.0785 77.2933 18.8668 77.056 18.6039 76.8891C18.341 76.7222 18.0372 76.6323 17.7265 76.6294H12.7021C12.4016 76.6352 12.1083 76.7234 11.8539 76.8847C11.5994 77.0459 11.3935 77.274 11.2581 77.5445C10.871 78.2151 10.6777 78.9815 10.6999 79.757V84.6846C10.6489 85.4949 10.8325 86.3026 11.2283 87.0097C11.3846 87.2629 11.6047 87.4699 11.8662 87.6096C12.1277 87.7492 12.4213 87.8165 12.717 87.8047H17.7414C18.0378 87.8158 18.3319 87.7473 18.5934 87.6063C18.855 87.4653 19.0747 87.2568 19.2301 87.0022C19.6283 86.2985 19.8146 85.4932 19.766 84.6846V79.7495H19.7511ZM13.3348 79.7495H17.1459V84.6771H13.3348V79.7495ZM21.024 76.6219H23.6292V87.7972H21.024V76.6219ZM32.4944 76.6219V79.7495H24.8127C24.7694 78.9517 24.931 78.1561 25.2816 77.4394C25.4119 77.1856 25.6113 76.9744 25.8566 76.8309C26.1019 76.6874 26.3827 76.6175 26.6661 76.6294L32.4944 76.6219ZM24.8127 80.7245V84.6996C24.7898 85.4743 24.9805 86.2401 25.3635 86.9122C25.4982 87.1831 25.704 87.4117 25.9586 87.573C26.2132 87.7343 26.5068 87.8223 26.8075 87.8272H32.4944V84.6996H27.4105V80.7245H24.8127ZM33.6183 76.6519H41.4861V79.7795H33.6183V76.6519ZM33.6183 80.7245H39.5731V83.7246H36.2459V84.6696H41.5084V87.7972H33.6183V80.7245ZM42.6547 84.6096H45.2599V87.8272H42.6547V84.6096Z" fill="white"/>
<path fill-rule="evenodd" clip-rule="evenodd" d="M6.92581 48.6162L37.057 48.6912L32.0476 39.4135L37.4962 30.6758L49.0633 51.0013L52.6288 57.1964H44.8429H1.5144L6.92581 48.6162Z" fill="white"/>
<path fill-rule="evenodd" clip-rule="evenodd" d="M63.2135 56.9639L37.3549 16.9354L20.4954 42.991L9.62793 42.961L33.2461 6.36015L37.3549 0L41.4562 6.36015L74.081 56.9564L63.2135 56.9639Z" fill="white"/>
<path fill-rule="evenodd" clip-rule="evenodd" d="M0.762695 62.6791H6.48673V73.2244H0.762695V62.6791ZM14.7341 73.2244V65.6417H28.7055C28.6985 65.2257 28.587 64.8184 28.3813 64.4576C28.1756 64.0969 27.8826 63.7947 27.5294 63.5791C26.578 62.947 25.4524 62.6345 24.3139 62.6866H9.01751V73.2244H14.7341ZM15.9325 66.4742H28.7055C28.6678 66.9055 28.516 67.3188 28.266 67.671C28.0159 68.0232 27.6768 68.3015 27.2838 68.4767C26.3895 69.036 25.3589 69.3345 24.3064 69.3393H23.7109L26.9042 73.1869H20.607L15.9474 66.4367L15.9325 66.4742ZM51.2295 65.5817C51.2225 65.1657 51.111 64.7583 50.9053 64.3976C50.6996 64.0369 50.4065 63.7347 50.0534 63.5191C49.102 62.8869 47.9763 62.5745 46.8378 62.6266H35.7992C34.6789 62.5746 33.5704 62.8762 32.6282 63.4891C32.2659 63.7056 31.9639 64.0111 31.7504 64.377C31.537 64.7429 31.419 65.1574 31.4075 65.5817V70.2393C31.3874 70.6779 31.4846 71.1139 31.6888 71.5018C31.8931 71.8897 32.1969 72.2152 32.5687 72.4443C33.5512 72.996 34.6686 73.2561 35.7917 73.1943H46.8378C47.9587 73.2575 49.0741 72.9974 50.0534 72.4443C50.4268 72.2177 50.7329 71.8942 50.9397 71.5076C51.1466 71.1211 51.2467 70.6856 51.2295 70.2468V65.5892V65.5817ZM37.1241 65.5817H45.5054V70.2393H37.1315V65.5817H37.1241ZM54.1175 73.2244H59.8416V62.6791H54.1175V73.2244ZM68.2229 73.2244H74.0735V62.6791H68.3495V69.0093L61.1665 63.6766V67.8692L68.2229 73.2244Z" fill="white"/>
</svg>
